<svg id="Layer_1" data-name="Layer 1" xmlns="http://www.w3.org/2000/svg" viewBox="0 0 367.56 187.94"><defs><style>.cls-1{fill:#b2d6ff;}.cls-1,.cls-2,.cls-3,.cls-4{stroke:#5d6063;stroke-miterlimit:10;}.cls-2{fill:#6a8099;}.cls-3{fill:#8eabcc;}.cls-4{fill:none;}.cls-5{fill:#5d6063;}</style></defs><title>autoscaler</title><rect class="cls-1" x="0.5" y="69.02" width="118.42" height="118.42" rx="6.28"/><rect class="cls-2" x="217.62" y="69.02" width="118.42" height="118.42" rx="6.28"/><rect class="cls-3" x="232.07" y="69.02" width="118.42" height="118.42" rx="6.28"/><rect class="cls-1" x="248.64" y="69.02" width="118.42" height="118.42" rx="6.28"/><line class="cls-4" x1="118.92" y1="128.23" x2="217.62" y2="128.23"/><line class="cls-4" x1="206.83" y1="109.32" x2="217.62" y2="128.23"/><line class="cls-4" x1="206.34" y1="146.94" x2="217.62" y2="128.23"/><path class="cls-5" d="M104.22,62.76l-1.75,5.32h-2.26L106,51.18h2.64l5.76,16.9H112l-1.8-5.32Zm5.54-1.7-1.65-4.87c-.38-1.1-.63-2.1-.88-3.08h0c-.25,1-.52,2-.85,3.06l-1.66,4.89Z" transform="translate(-96.22 -50.28)"/><path class="cls-5" d="M126.61,64.77c0,1.25,0,2.35.1,3.31h-2l-.12-2h0a4.57,4.57,0,0,1-4,2.26c-1.91,0-4.19-1-4.19-5.31v-7.1h2.21v6.72c0,2.31.7,3.86,2.7,3.86a3.2,3.2,0,0,0,2.91-2,3.15,3.15,0,0,0,.2-1.13V55.94h2.21Z" transform="translate(-96.22 -50.28)"/><path class="cls-5" d="M132.92,52.46v3.48h3.16v1.68h-3.16v6.54c0,1.51.43,2.36,1.66,2.36a4.78,4.78,0,0,0,1.28-.15L136,68a5.32,5.32,0,0,1-2,.31,3.06,3.06,0,0,1-2.38-.93,4.48,4.48,0,0,1-.85-3.16V57.62h-1.88V55.94h1.88V53Z" transform="translate(-96.22 -50.28)"/><path class="cls-5" d="M149.39,61.91c0,4.49-3.1,6.44-6,6.44-3.28,0-5.81-2.41-5.81-6.24,0-4.06,2.65-6.44,6-6.44S149.39,58.2,149.39,61.91Zm-9.62.12c0,2.66,1.53,4.67,3.68,4.67s3.69-2,3.69-4.72c0-2-1-4.66-3.64-4.66S139.77,59.73,139.77,62Z" transform="translate(-96.22 -50.28)"/><path class="cls-5" d="M152,65.42a7.76,7.76,0,0,0,3.91,1.1c2.23,0,3.53-1.18,3.53-2.88s-.9-2.48-3.18-3.36c-2.76-1-4.46-2.41-4.46-4.79,0-2.63,2.18-4.59,5.46-4.59a7.64,7.64,0,0,1,3.74.83l-.6,1.78a6.74,6.74,0,0,0-3.21-.8c-2.31,0-3.19,1.38-3.19,2.53,0,1.58,1,2.36,3.36,3.26,2.86,1.1,4.32,2.48,4.32,5s-1.93,4.87-5.92,4.87a8.73,8.73,0,0,1-4.31-1.08Z" transform="translate(-96.22 -50.28)"/><path class="cls-5" d="M173.33,67.62a8.1,8.1,0,0,1-3.48.71c-3.66,0-6-2.49-6-6.2a6.17,6.17,0,0,1,6.52-6.44,7.36,7.36,0,0,1,3.06.63l-.5,1.7a5.14,5.14,0,0,0-2.56-.57c-2.78,0-4.28,2-4.28,4.58,0,2.81,1.8,4.54,4.21,4.54A6.25,6.25,0,0,0,173,66Z" transform="translate(-96.22 -50.28)"/><path class="cls-5" d="M182.63,68.08l-.18-1.53h-.07a4.53,4.53,0,0,1-3.71,1.8A3.45,3.45,0,0,1,175,64.87c0-2.94,2.61-4.54,7.29-4.52V60.1a2.5,2.5,0,0,0-2.75-2.81,6.06,6.06,0,0,0-3.16.91l-.5-1.46a7.51,7.51,0,0,1,4-1.07c3.71,0,4.62,2.53,4.62,5v4.54a17.2,17.2,0,0,0,.2,2.91Zm-.33-6.2c-2.4-.05-5.14.38-5.14,2.74a2,2,0,0,0,2.09,2.1,3,3,0,0,0,2.93-2,2.51,2.51,0,0,0,.12-.7Z" transform="translate(-96.22 -50.28)"/><path class="cls-5" d="M188,50.28h2.21v17.8H188Z" transform="translate(-96.22 -50.28)"/><path class="cls-5" d="M195.14,62.41c.05,3,2,4.21,4.16,4.21a7.84,7.84,0,0,0,3.36-.63l.37,1.58a9.76,9.76,0,0,1-4,.76c-3.74,0-6-2.46-6-6.12s2.16-6.54,5.69-6.54c4,0,5,3.48,5,5.71a7.4,7.4,0,0,1-.08,1Zm6.46-1.58c0-1.4-.57-3.58-3-3.58-2.24,0-3.21,2-3.39,3.58Z" transform="translate(-96.22 -50.28)"/><path class="cls-5" d="M206.47,59.73c0-1.43,0-2.66-.1-3.79h1.93l.07,2.38h.1a3.63,3.63,0,0,1,3.36-2.65,2.43,2.43,0,0,1,.63.07v2.08a3.36,3.36,0,0,0-.75-.07,3.08,3.08,0,0,0-3,2.83,6.2,6.2,0,0,0-.1,1v6.47h-2.18Z" transform="translate(-96.22 -50.28)"/><path class="cls-5" d="M214.36,65.82a5.76,5.76,0,0,0,2.91.88c1.6,0,2.36-.81,2.36-1.81s-.63-1.63-2.26-2.23c-2.18-.78-3.21-2-3.21-3.43,0-2,1.58-3.56,4.19-3.56a6.06,6.06,0,0,1,3,.75l-.55,1.6a4.73,4.73,0,0,0-2.48-.7c-1.31,0-2,.75-2,1.65s.72,1.46,2.3,2.06c2.11.8,3.19,1.86,3.19,3.66,0,2.13-1.66,3.64-4.54,3.64a6.93,6.93,0,0,1-3.41-.83Z" transform="translate(-96.22 -50.28)"/><path class="cls-5" d="M232.36,52.53a1.37,1.37,0,0,1-2.73,0A1.34,1.34,0,0,1,231,51.15,1.31,1.31,0,0,1,232.36,52.53ZM229.9,68.08V55.94h2.21V68.08Z" transform="translate(-96.22 -50.28)"/><path class="cls-5" d="M235.77,59.23c0-1.26,0-2.29-.1-3.29h2l.13,2h.05a4.44,4.44,0,0,1,4-2.28c1.68,0,4.29,1,4.29,5.16v7.25h-2.21v-7c0-2-.73-3.58-2.81-3.58a3.14,3.14,0,0,0-3,2.25,3.2,3.2,0,0,0-.15,1v7.3h-2.2Z" transform="translate(-96.22 -50.28)"/><path class="cls-5" d="M258.33,67.62a8.15,8.15,0,0,1-3.49.71c-3.66,0-6-2.49-6-6.2a6.17,6.17,0,0,1,6.52-6.44,7.4,7.4,0,0,1,3.06.63l-.5,1.7a5.17,5.17,0,0,0-2.56-.57c-2.78,0-4.29,2-4.29,4.58,0,2.81,1.81,4.54,4.21,4.54A6.17,6.17,0,0,0,258,66Z" transform="translate(-96.22 -50.28)"/><path class="cls-5" d="M260.91,59.73c0-1.43,0-2.66-.1-3.79h1.93l.07,2.38h.1a3.64,3.64,0,0,1,3.36-2.65,2.43,2.43,0,0,1,.63.07v2.08a3.36,3.36,0,0,0-.75-.07,3.08,3.08,0,0,0-3,2.83,6.2,6.2,0,0,0-.1,1v6.47h-2.18Z" transform="translate(-96.22 -50.28)"/><path class="cls-5" d="M270.08,62.41a3.89,3.89,0,0,0,4.16,4.21A7.81,7.81,0,0,0,277.6,66l.38,1.58a9.85,9.85,0,0,1-4,.76c-3.73,0-6-2.46-6-6.12s2.15-6.54,5.69-6.54c4,0,5,3.48,5,5.71a9.94,9.94,0,0,1-.07,1Zm6.47-1.58c0-1.4-.58-3.58-3.06-3.58-2.23,0-3.21,2-3.38,3.58Z" transform="translate(-96.22 -50.28)"/><path class="cls-5" d="M288.13,68.08,288,66.55h-.08a4.53,4.53,0,0,1-3.71,1.8,3.45,3.45,0,0,1-3.71-3.48c0-2.94,2.61-4.54,7.29-4.52V60.1A2.5,2.5,0,0,0,285,57.29a6.06,6.06,0,0,0-3.16.91l-.5-1.46a7.51,7.51,0,0,1,4-1.07c3.71,0,4.62,2.53,4.62,5v4.54a17.2,17.2,0,0,0,.2,2.91Zm-.33-6.2c-2.4-.05-5.13.38-5.13,2.74a2,2,0,0,0,2.08,2.1,3,3,0,0,0,2.93-2,2.51,2.51,0,0,0,.12-.7Z" transform="translate(-96.22 -50.28)"/><path class="cls-5" d="M293.19,65.82a5.76,5.76,0,0,0,2.91.88c1.61,0,2.36-.81,2.36-1.81s-.63-1.63-2.26-2.23c-2.18-.78-3.21-2-3.21-3.43,0-2,1.58-3.56,4.19-3.56a6,6,0,0,1,3,.75l-.55,1.6a4.73,4.73,0,0,0-2.48-.7c-1.3,0-2,.75-2,1.65s.73,1.46,2.3,2.06c2.11.8,3.19,1.86,3.19,3.66,0,2.13-1.66,3.64-4.54,3.64a6.93,6.93,0,0,1-3.41-.83Z" transform="translate(-96.22 -50.28)"/><path class="cls-5" d="M304.65,62.41c.05,3,2,4.21,4.16,4.21a7.84,7.84,0,0,0,3.36-.63l.37,1.58a9.76,9.76,0,0,1-4,.76c-3.74,0-6-2.46-6-6.12s2.16-6.54,5.69-6.54c4,0,5,3.48,5,5.71a7.4,7.4,0,0,1-.08,1Zm6.47-1.58c0-1.4-.58-3.58-3.06-3.58-2.23,0-3.21,2-3.39,3.58Z" transform="translate(-96.22 -50.28)"/><path class="cls-5" d="M322.24,52.53a1.3,1.3,0,0,1-1.4,1.36,1.32,1.32,0,0,1-1.33-1.36,1.35,1.35,0,0,1,1.38-1.38A1.3,1.3,0,0,1,322.24,52.53Zm-2.45,15.55V55.94H322V68.08Z" transform="translate(-96.22 -50.28)"/><path class="cls-5" d="M325.65,59.23c0-1.26,0-2.29-.1-3.29h2l.12,2h.05a4.45,4.45,0,0,1,4-2.28c1.68,0,4.29,1,4.29,5.16v7.25h-2.21v-7c0-2-.72-3.58-2.8-3.58a3.12,3.12,0,0,0-3,2.25,3.2,3.2,0,0,0-.15,1v7.3h-2.21Z" transform="translate(-96.22 -50.28)"/><path class="cls-5" d="M339.26,65.82a5.76,5.76,0,0,0,2.91.88c1.61,0,2.36-.81,2.36-1.81s-.63-1.63-2.26-2.23c-2.18-.78-3.21-2-3.21-3.43,0-2,1.58-3.56,4.19-3.56a6,6,0,0,1,3,.75l-.55,1.6a4.73,4.73,0,0,0-2.48-.7c-1.3,0-2,.75-2,1.65s.73,1.46,2.3,2.06c2.11.8,3.19,1.86,3.19,3.66,0,2.13-1.66,3.64-4.54,3.64a6.93,6.93,0,0,1-3.41-.83Z" transform="translate(-96.22 -50.28)"/><path class="cls-5" d="M352.15,52.46v3.48h3.16v1.68h-3.16v6.54c0,1.51.42,2.36,1.65,2.36a4.73,4.73,0,0,0,1.28-.15l.1,1.65a5.29,5.29,0,0,1-2,.31,3.08,3.08,0,0,1-2.38-.93,4.53,4.53,0,0,1-.85-3.16V57.62h-1.88V55.94H350V53Z" transform="translate(-96.22 -50.28)"/><path class="cls-5" d="M364.5,68.08l-.17-1.53h-.08a4.51,4.51,0,0,1-3.71,1.8,3.46,3.46,0,0,1-3.71-3.48c0-2.94,2.61-4.54,7.3-4.52V60.1a2.51,2.51,0,0,0-2.76-2.81,6.06,6.06,0,0,0-3.16.91l-.5-1.46a7.55,7.55,0,0,1,4-1.07c3.71,0,4.61,2.53,4.61,5v4.54a17.2,17.2,0,0,0,.2,2.91Zm-.32-6.2c-2.41-.05-5.14.38-5.14,2.74a2,2,0,0,0,2.08,2.1,3,3,0,0,0,2.93-2,2.21,2.21,0,0,0,.13-.7Z" transform="translate(-96.22 -50.28)"/><path class="cls-5" d="M369.87,59.23c0-1.26,0-2.29-.1-3.29h2l.13,2h0a4.44,4.44,0,0,1,4-2.28c1.68,0,4.29,1,4.29,5.16v7.25H378v-7c0-2-.73-3.58-2.81-3.58a3.14,3.14,0,0,0-3,2.25,3.2,3.2,0,0,0-.15,1v7.3h-2.2Z" transform="translate(-96.22 -50.28)"/><path class="cls-5" d="M392.43,67.62a8.15,8.15,0,0,1-3.49.71c-3.66,0-6-2.49-6-6.2a6.17,6.17,0,0,1,6.52-6.44,7.4,7.4,0,0,1,3.06.63L392,58a5.17,5.17,0,0,0-2.56-.57c-2.78,0-4.29,2-4.29,4.58,0,2.81,1.81,4.54,4.21,4.54a6.17,6.17,0,0,0,2.71-.6Z" transform="translate(-96.22 -50.28)"/><path class="cls-5" d="M396.09,62.41c.05,3,2,4.21,4.16,4.21a7.84,7.84,0,0,0,3.36-.63l.37,1.58a9.76,9.76,0,0,1-4,.76c-3.74,0-6-2.46-6-6.12s2.16-6.54,5.69-6.54c4,0,5,3.48,5,5.71a7.4,7.4,0,0,1-.08,1Zm6.46-1.58c0-1.4-.57-3.58-3.05-3.58-2.23,0-3.21,2-3.39,3.58Z" transform="translate(-96.22 -50.28)"/><path class="cls-5" d="M407.12,65.82a5.72,5.72,0,0,0,2.9.88c1.61,0,2.36-.81,2.36-1.81s-.63-1.63-2.26-2.23c-2.18-.78-3.2-2-3.2-3.43,0-2,1.57-3.56,4.18-3.56a6,6,0,0,1,3,.75l-.55,1.6a4.7,4.7,0,0,0-2.48-.7c-1.3,0-2,.75-2,1.65s.73,1.46,2.31,2.06c2.1.8,3.18,1.86,3.18,3.66,0,2.13-1.65,3.64-4.54,3.64a7,7,0,0,1-3.41-.83Z" transform="translate(-96.22 -50.28)"/><path class="cls-5" d="M111.57,94.85c0,1.25,0,2.35.1,3.3h-2l-.12-2h0a4.57,4.57,0,0,1-4,2.26c-1.91,0-4.19-1.05-4.19-5.31V86h2.21v6.72c0,2.31.7,3.86,2.7,3.86a3.19,3.19,0,0,0,2.91-2,3.06,3.06,0,0,0,.2-1.12V86h2.21Z" transform="translate(-96.22 -50.28)"/><path class="cls-5" d="M115.23,89.31c0-1.26,0-2.29-.1-3.29h2l.13,2h.05a4.44,4.44,0,0,1,4-2.28c1.68,0,4.29,1,4.29,5.16v7.24h-2.21v-7c0-2-.73-3.58-2.81-3.58a3.14,3.14,0,0,0-3,2.25,3.2,3.2,0,0,0-.15,1v7.29h-2.2Z" transform="translate(-96.22 -50.28)"/><path class="cls-5" d="M139.62,80.35V95c0,1.08,0,2.31.1,3.13h-2l-.1-2.1h0a4.5,4.5,0,0,1-4.14,2.38c-2.93,0-5.19-2.48-5.19-6.17,0-4,2.48-6.51,5.44-6.51a4,4,0,0,1,3.66,1.85h0V80.35ZM137.41,91a3.68,3.68,0,0,0-.1-.93,3.24,3.24,0,0,0-3.18-2.55c-2.28,0-3.64,2-3.64,4.68,0,2.46,1.21,4.49,3.59,4.49A3.31,3.31,0,0,0,137.31,94a3.6,3.6,0,0,0,.1-1Z" transform="translate(-96.22 -50.28)"/><path class="cls-5" d="M144.5,92.49a3.89,3.89,0,0,0,4.17,4.21,7.91,7.91,0,0,0,3.35-.63l.38,1.58a9.85,9.85,0,0,1-4,.76c-3.73,0-6-2.46-6-6.12s2.15-6.54,5.69-6.54c4,0,5,3.48,5,5.71a9.94,9.94,0,0,1-.07,1ZM151,90.91c0-1.4-.57-3.59-3.06-3.59-2.23,0-3.21,2.06-3.38,3.59Z" transform="translate(-96.22 -50.28)"/><path class="cls-5" d="M155.83,89.81c0-1.43,0-2.66-.1-3.79h1.93l.08,2.38h.1a3.63,3.63,0,0,1,3.36-2.65,2.35,2.35,0,0,1,.62.07V87.9a3.3,3.3,0,0,0-.75-.07,3.1,3.1,0,0,0-3,2.83,6.2,6.2,0,0,0-.1,1v6.46h-2.18Z" transform="translate(-96.22 -50.28)"/><path class="cls-5" d="M169.34,80.35h2.21v17.8h-2.21Z" transform="translate(-96.22 -50.28)"/><path class="cls-5" d="M186.24,92c0,4.49-3.11,6.44-6,6.44-3.29,0-5.82-2.41-5.82-6.24,0-4.06,2.66-6.44,6-6.44S186.24,88.28,186.24,92Zm-9.63.12c0,2.66,1.53,4.67,3.69,4.67s3.68-2,3.68-4.72c0-2-1-4.66-3.63-4.66S176.61,89.81,176.61,92.11Z" transform="translate(-96.22 -50.28)"/><path class="cls-5" d="M195.74,98.15l-.18-1.52h-.07a4.53,4.53,0,0,1-3.71,1.8A3.45,3.45,0,0,1,188.07,95c0-2.94,2.6-4.54,7.29-4.52v-.25a2.5,2.5,0,0,0-2.76-2.81,6,6,0,0,0-3.15.91l-.51-1.46a7.58,7.58,0,0,1,4-1.07c3.71,0,4.61,2.53,4.61,5v4.54a17,17,0,0,0,.2,2.9ZM195.41,92c-2.4,0-5.14.38-5.14,2.74a2,2,0,0,0,2.08,2.1,3,3,0,0,0,2.94-2,2.51,2.51,0,0,0,.12-.7Z" transform="translate(-96.22 -50.28)"/><path class="cls-5" d="M211.58,80.35V95c0,1.08,0,2.31.1,3.13h-2l-.1-2.1h0a4.5,4.5,0,0,1-4.14,2.38c-2.93,0-5.19-2.48-5.19-6.17,0-4,2.49-6.51,5.44-6.51a4,4,0,0,1,3.66,1.85h.06V80.35ZM209.38,91a3.69,3.69,0,0,0-.11-.93,3.23,3.23,0,0,0-3.18-2.55c-2.28,0-3.63,2-3.63,4.68,0,2.46,1.2,4.49,3.58,4.49A3.31,3.31,0,0,0,209.27,94a3.59,3.59,0,0,0,.11-1Z" transform="translate(-96.22 -50.28)"/><path class="cls-5" d="M139.45,180.45l-1.76,5.32h-2.25l5.74-16.9h2.63l5.77,16.9h-2.33l-1.81-5.32Zm5.54-1.7-1.65-4.86c-.38-1.11-.63-2.11-.88-3.09h-.05c-.25,1-.53,2-.85,3.06l-1.66,4.89Z" transform="translate(-96.22 -50.28)"/><path class="cls-5" d="M151.91,177.6c0-1.56,0-2.81-.1-4h2l.1,2.09h.05a4.77,4.77,0,0,1,4.31-2.36c2.93,0,5.14,2.48,5.14,6.17,0,4.36-2.66,6.51-5.52,6.51a4.26,4.26,0,0,1-3.73-1.9h0v6.59h-2.18Zm2.18,3.23a4.85,4.85,0,0,0,.1.9,3.4,3.4,0,0,0,3.31,2.58c2.33,0,3.68-1.9,3.68-4.68,0-2.44-1.28-4.52-3.61-4.52a3.52,3.52,0,0,0-3.33,2.74,3.32,3.32,0,0,0-.15.9Z" transform="translate(-96.22 -50.28)"/><path class="cls-5" d="M166.17,177.6c0-1.56,0-2.81-.1-4h2l.1,2.09h0a4.77,4.77,0,0,1,4.31-2.36c2.93,0,5.14,2.48,5.14,6.17,0,4.36-2.66,6.51-5.51,6.51a4.26,4.26,0,0,1-3.74-1.9h-.05v6.59h-2.18Zm2.18,3.23a4.85,4.85,0,0,0,.1.9,3.4,3.4,0,0,0,3.31,2.58c2.33,0,3.68-1.9,3.68-4.68,0-2.44-1.27-4.52-3.61-4.52a3.52,3.52,0,0,0-3.33,2.74,3.76,3.76,0,0,0-.15.9Z" transform="translate(-96.22 -50.28)"/><path class="cls-5" d="M386.81,180.45l-1.75,5.32H382.8l5.74-16.9h2.63l5.77,16.9h-2.33l-1.81-5.32Zm5.54-1.7-1.65-4.86c-.38-1.11-.63-2.11-.88-3.09h-.05c-.25,1-.53,2-.85,3.06l-1.66,4.89Z" transform="translate(-96.22 -50.28)"/><path class="cls-5" d="M399.27,177.6c0-1.56,0-2.81-.1-4h2l.1,2.09h.05a4.77,4.77,0,0,1,4.31-2.36c2.94,0,5.14,2.48,5.14,6.17,0,4.36-2.66,6.51-5.51,6.51a4.26,4.26,0,0,1-3.74-1.9h-.05v6.59h-2.18Zm2.18,3.23a4.85,4.85,0,0,0,.1.9,3.4,3.4,0,0,0,3.31,2.58c2.33,0,3.69-1.9,3.69-4.68,0-2.44-1.28-4.52-3.61-4.52a3.53,3.53,0,0,0-3.34,2.74,3.76,3.76,0,0,0-.15.9Z" transform="translate(-96.22 -50.28)"/><path class="cls-5" d="M413.53,177.6c0-1.56,0-2.81-.1-4h2l.1,2.09h.05a4.77,4.77,0,0,1,4.31-2.36c2.94,0,5.14,2.48,5.14,6.17,0,4.36-2.65,6.51-5.51,6.51a4.26,4.26,0,0,1-3.74-1.9h-.05v6.59h-2.18Zm2.18,3.23a4.85,4.85,0,0,0,.1.9,3.4,3.4,0,0,0,3.31,2.58c2.33,0,3.69-1.9,3.69-4.68,0-2.44-1.28-4.52-3.61-4.52a3.53,3.53,0,0,0-3.34,2.74,3.76,3.76,0,0,0-.15.9Z" transform="translate(-96.22 -50.28)"/></svg>